<svg width="96" height="139" viewBox="0 0 96 139" fill="none" xmlns="http://www.w3.org/2000/svg">
<path d="M28.788 128.559C33.9602 132.872 42.0638 130.761 45.1818 138.654C43.3138 138.764 42.0918 138.949 41.1353 138.728C29.4171 136.271 17.4835 133.789 5.79037 131.117C3.87741 130.676 1.17837 129.488 0.58779 128.001C-0.498239 125.146 2.16637 123.82 4.47034 122.778C11.7429 119.37 19.0405 115.746 26.4333 112.242C27.5088 117.06 27.5088 117.06 16.2638 124.589C41.1983 126.949 61.005 107.759 58.2867 83.3235C55.8427 83.6935 53.4938 84.1837 51.0498 84.5537C43.9582 85.4734 37.4279 84.385 31.3692 80.1867C27.028 77.1708 24.4399 73.1587 25.1874 67.6801C26.0552 62.1063 29.9722 59.398 35.0558 57.9169C45.9191 54.5993 55.8089 58.6983 61.0698 68.8059C61.6855 70.0781 62.5416 71.1601 63.658 72.818C75.504 64.8131 84.1305 54.4686 87.4593 40.8876C92.743 19.8952 78.2026 7.94237 63.4749 4.15259C61.6822 3.61627 59.719 3.60576 56.7294 3.0391C60.7415 0.450953 64.1869 0.852466 67.5121 1.3491C80.5025 3.19032 92.0783 14.3612 94.499 27.3026C95.9392 35.5462 95.0107 43.5138 91.4031 51.06C86.0767 62.1164 78.5573 71.3894 68.0838 77.9173C67.027 78.5581 66.0652 79.3191 64.7679 80.1501C65.306 91.4534 64.3366 102.581 57.1977 112.335C50.109 121.658 39.2959 124.545 28.788 128.559ZM57.1517 76.2068C54.4352 64.8679 45.6774 59.4821 36.4166 63.0955C34.1378 63.9213 31.8035 66.1593 31.0016 68.3576C29.8841 71.3922 32.2172 73.8468 34.9863 75.3699C42.0265 79.5734 49.2582 79.3248 57.1517 76.2068Z" fill="#7AB4FE"/>
</svg>
