<svg width="16" height="16" viewBox="0 0 16 16" fill="none" xmlns="http://www.w3.org/2000/svg">
<g clip-path="url(#clip0_1_228)">
<path d="M15.9693 3.6947L10.3573 9.3067C9.73158 9.93087 8.88383 10.2814 8 10.2814C7.11617 10.2814 6.26842 9.93087 5.64267 9.3067L0.0306667 3.6947C0.0213333 3.80004 0 3.89537 0 4.00004V12C0.00105857 12.8838 0.352588 13.731 0.97748 14.3559C1.60237 14.9808 2.4496 15.3323 3.33333 15.3334H12.6667C13.5504 15.3323 14.3976 14.9808 15.0225 14.3559C15.6474 13.731 15.9989 12.8838 16 12V4.00004C16 3.89537 15.9787 3.80004 15.9693 3.6947Z" fill="#FF69B3"/>
<path d="M9.41467 8.36396L15.504 2.27396C15.209 1.78484 14.793 1.37998 14.296 1.09845C13.799 0.816908 13.2379 0.668186 12.6667 0.666626H3.33334C2.76215 0.668186 2.201 0.816908 1.70402 1.09845C1.20704 1.37998 0.790988 1.78484 0.496002 2.27396L6.58534 8.36396C6.96105 8.73817 7.46972 8.94827 8 8.94827C8.53028 8.94827 9.03895 8.73817 9.41467 8.36396Z" fill="#FF69B3"/>
</g>
<defs>
<clipPath id="clip0_1_228">
<rect width="16" height="16" fill="white"/>
</clipPath>
</defs>
</svg>
