<svg width="207" height="167" viewBox="0 0 207 167" fill="none" xmlns="http://www.w3.org/2000/svg">
<path d="M-16 16C-16 7.16344 -8.83656 0 0 0H24C32.8366 0 40 7.16344 40 16V56H-16V16Z" fill="#CBFD13"/>
<path d="M151 16C151 7.16344 158.163 0 167 0H191C199.837 0 207 7.16344 207 16V40C207 48.8366 199.837 56 191 56H151V16Z" fill="#CBFD13"/>
<path d="M-16 111H24C32.8366 111 40 118.163 40 127V151C40 159.837 32.8366 167 24 167H-9.53674e-07C-8.83656 167 -16 159.837 -16 151V111Z" fill="#CBFD13"/>
<path d="M40 55H151V95C151 103.837 143.837 111 135 111H56C47.1634 111 40 103.837 40 95V55Z" fill="#CBFD13"/>
<path d="M40 42C43.1278 49.4131 45.3433 52.1124 53 55L40 70C37.53 62.5004 33.4805 59.4128 25 56L40 42Z" fill="#CBFD13"/>
<path d="M137.5 55C144.913 51.8722 148.112 48.6567 151 41L165 56C157.5 58.47 154.413 61.5195 151 70L137.5 55Z" fill="#CBFD13"/>
</svg>
