<svg width="168" height="224" viewBox="0 0 168 224" fill="none" xmlns="http://www.w3.org/2000/svg">
<path d="M112 16C112 7.16344 119.163 0 128 0H152C160.837 0 168 7.16344 168 16V40C168 48.8366 160.837 56 152 56H112V16Z" fill="#FF69B3"/>
<path d="M56 168H96C104.837 168 112 175.163 112 184V208C112 216.837 104.837 224 96 224H72C63.1634 224 56 216.837 56 208V168Z" fill="#FF69B3"/>
<path d="M0 112H56V168H16C7.16344 168 0 160.837 0 152V112Z" fill="#FF69B3"/>
<path d="M0 72C0 63.1634 7.16344 56 16 56H112V96C112 104.837 104.837 112 96 112H0V72Z" fill="#FF69B3"/>
<path d="M42.5 111C49.9131 107.872 52.6124 104.657 55.5 97L70 112C62.5004 114.47 59.4128 117.519 56 126L42.5 111Z" fill="#FF69B3"/>
<path d="M56 153C59.1278 160.413 62.3433 165.112 70 168L56 182C53.53 174.5 50.4805 171.413 42 168L56 153Z" fill="#FF69B3"/>
<path d="M99 56C106.413 52.8722 109.112 49.6567 112 42L126 56C118.5 58.47 115.413 62.5195 112 71L99 56Z" fill="#FF69B3"/>
</svg>
