<svg width="215" height="167" viewBox="0 0 215 167" fill="none" xmlns="http://www.w3.org/2000/svg">
<g opacity="0.3">
<path d="M-8 16C-8 7.16344 -0.836555 0 8 0H32C40.8366 0 48 7.16344 48 16V56H-8V16Z" fill="#7AB4FE"/>
<path d="M159 16C159 7.16344 166.163 0 175 0H199C207.837 0 215 7.16344 215 16V40C215 48.8366 207.837 56 199 56H159V16Z" fill="#7AB4FE"/>
<path d="M-8 111H32C40.8366 111 48 118.163 48 127V151C48 159.837 40.8366 167 32 167H8C-0.836557 167 -8 159.837 -8 151V111Z" fill="#7AB4FE"/>
<path d="M48 55H159V95C159 103.837 151.837 111 143 111H64C55.1634 111 48 103.837 48 95V55Z" fill="#7AB4FE"/>
<path d="M-21 55C-13.5869 51.8722 -10.8876 48.6567 -8 41L6 56C-1.49959 58.47 -4.58722 61.5195 -8 70L-21 55Z" fill="#7AB4FE"/>
<path d="M48 42C51.1278 49.4131 53.3433 52.1124 61 55L48 70C45.53 62.5004 41.4805 59.4128 33 56L48 42Z" fill="#7AB4FE"/>
<path d="M-8 97C-4.87221 104.413 -2.65668 108.112 5 111L-8 125C-10.47 117.5 -14.5195 114.413 -23 111L-8 97Z" fill="#7AB4FE"/>
<path d="M145.5 55C152.913 51.8722 156.112 48.6567 159 41L173 56C165.5 58.47 162.413 61.5195 159 70L145.5 55Z" fill="#7AB4FE"/>
</g>
</svg>
