<svg width="112" height="112" viewBox="0 0 112 112" fill="none" xmlns="http://www.w3.org/2000/svg">
<g opacity="0.3">
<path d="M0 16C0 7.16344 7.16344 0 16 0H40C48.8366 0 56 7.16344 56 16V56H16C7.16344 56 0 48.8366 0 40V16Z" fill="#FF69B3"/>
<path d="M56 56H96C104.837 56 112 63.1634 112 72V96C112 104.837 104.837 112 96 112H72C63.1634 112 56 104.837 56 96V56Z" fill="#FF69B3"/>
<path d="M56 42C59.1278 49.4131 61.3433 53.1124 69 56L56 70C53.53 62.5004 49.4805 59.4128 41 56L56 42Z" fill="#FF69B3"/>
</g>
</svg>
