<svg width="16" height="16" viewBox="0 0 16 16" fill="none" xmlns="http://www.w3.org/2000/svg">
<g clip-path="url(#clip0_1_219)">
<path d="M8.00001 0C6.2325 0.00194106 4.53793 0.704943 3.28811 1.95477C2.03829 3.20459 1.33528 4.89915 1.33334 6.66667C1.33334 10.188 6.93334 15.022 7.56934 15.562L8.00001 15.926L8.43068 15.562C9.06668 15.022 14.6667 10.188 14.6667 6.66667C14.6647 4.89915 13.9617 3.20459 12.7119 1.95477C11.4621 0.704943 9.76752 0.00194106 8.00001 0ZM8.00001 10C7.34074 10 6.69627 9.8045 6.14811 9.43823C5.59995 9.07196 5.1727 8.55136 4.92041 7.94228C4.66812 7.33319 4.60211 6.66297 4.73073 6.01637C4.85934 5.36976 5.17681 4.77582 5.64299 4.30964C6.10916 3.84347 6.70311 3.526 7.34971 3.39738C7.99631 3.26876 8.66653 3.33478 9.27562 3.58707C9.88471 3.83936 10.4053 4.2666 10.7716 4.81477C11.1378 5.36293 11.3333 6.0074 11.3333 6.66667C11.3323 7.5504 10.9808 8.39763 10.3559 9.02252C9.73097 9.64741 8.88374 9.99894 8.00001 10Z" fill="#FF69B3"/>
<path d="M8 8.66663C9.10457 8.66663 10 7.7712 10 6.66663C10 5.56206 9.10457 4.66663 8 4.66663C6.89543 4.66663 6 5.56206 6 6.66663C6 7.7712 6.89543 8.66663 8 8.66663Z" fill="#FF69B3"/>
</g>
<defs>
<clipPath id="clip0_1_219">
<rect width="16" height="16" fill="white"/>
</clipPath>
</defs>
</svg>
