<svg width="16" height="16" viewBox="0 0 16 16" fill="none" xmlns="http://www.w3.org/2000/svg">
<g clip-path="url(#clip0_1_224)">
<path d="M-3.8147e-06 4.16C-3.8147e-06 9.25333 6.75333 16 11.84 16C12.9533 16 13.9933 15.58 14.76 14.8133L15.4267 14.0467C16.2 13.2733 16.2 11.9667 15.3933 11.16C15.3733 11.14 13.7667 9.90666 13.7667 9.90666C12.9667 9.14666 11.7067 9.14666 10.9133 9.90666L9.94 10.6867C7.80666 9.78 6.29333 8.26 5.32 6.05333L6.09333 5.08C6.86 4.28666 6.86 3.02 6.09333 2.22666C6.09333 2.22666 4.86 0.619995 4.84 0.599995C4.03333 -0.206672 2.72666 -0.206672 1.92 0.599995L1.22 1.20666C0.419995 2 -3.8147e-06 3.04 -3.8147e-06 4.15333V4.16Z" fill="#FF69B3"/>
</g>
<defs>
<clipPath id="clip0_1_224">
<rect width="16" height="16" fill="white" transform="matrix(-1 0 0 1 16 0)"/>
</clipPath>
</defs>
</svg>
