<svg width="167" height="111" viewBox="0 0 167 111" fill="none" xmlns="http://www.w3.org/2000/svg">
<path d="M111 16C111 7.16344 118.163 0 127 0H151C159.837 0 167 7.16344 167 16V40C167 48.8366 159.837 56 151 56H111V16Z" fill="#CBFD13"/>
<path d="M0 71C0 62.1634 7.16344 55 16 55H111V95C111 103.837 103.837 111 95 111H16C7.16344 111 0 103.837 0 95V71Z" fill="#CBFD13"/>
<path d="M97.5 55C104.913 51.8722 108.112 48.6567 111 41L125 56C117.5 58.47 114.413 61.5195 111 70L97.5 55Z" fill="#CBFD13"/>
</svg>
